<svg width="175" height="200" viewBox="0 0 175 200" fill="none" xmlns="http://www.w3.org/2000/svg">
<path d="M50 0C56.9141 0 62.5 5.58594 62.5 12.5V25H112.5V12.5C112.5 5.58594 118.086 0 125 0C131.914 0 137.5 5.58594 137.5 12.5V25H156.25C166.602 25 175 33.3984 175 43.75V62.5H0V43.75C0 33.3984 8.39844 25 18.75 25H37.5V12.5C37.5 5.58594 43.0859 0 50 0ZM0 75H175V181.25C175 191.602 166.602 200 156.25 200H18.75C8.39844 200 0 191.602 0 181.25V75ZM128.516 119.141C132.187 115.469 132.187 109.531 128.516 105.898C124.844 102.266 118.906 102.227 115.273 105.898L78.1641 143.008L59.8047 124.648C56.1328 120.977 50.1953 120.977 46.5625 124.648C42.9297 128.32 42.8906 134.258 46.5625 137.891L71.5625 162.891C75.2344 166.562 81.1719 166.562 84.8047 162.891L128.516 119.141Z" fill="white"/>
</svg>
